<svg width="15" height="8" viewBox="0 0 15 8" fill="none" xmlns="http://www.w3.org/2000/svg">
<path fill-rule="evenodd" clip-rule="evenodd" d="M14.7809 0.266324C15.0734 0.560869 15.0734 1.03714 14.7809 1.33095L8.58292 7.55858C8.4463 7.69799 8.28187 7.80908 8.09962 7.88493C7.91737 7.96078 7.72113 7.99963 7.5228 7.99963C7.32448 7.99963 7.12822 7.96078 6.94597 7.88493C6.76373 7.80908 6.5993 7.69799 6.46268 7.55858L0.218931 1.28586C-0.0698194 0.994946 -0.0735767 0.5236 0.211423 0.228327C0.27938 0.156935 0.361724 0.0999928 0.453363 0.0607133C0.545001 0.0214338 0.643979 0.000670433 0.744169 -1.14441e-05C0.844358 -0.000693321 0.943635 0.0184231 1.03583 0.0564518C1.12803 0.09448 1.21119 0.150764 1.28018 0.221224L6.99293 5.96128C7.06124 6.03104 7.14348 6.08667 7.23464 6.12463C7.3258 6.16259 7.42397 6.18216 7.52318 6.18216C7.62239 6.18216 7.72055 6.16259 7.81171 6.12463C7.90287 6.08667 7.98511 6.03104 8.05343 5.96128L13.7212 0.267034C13.7894 0.197296 13.8716 0.141633 13.9627 0.103682C14.0538 0.065731 14.1519 0.0461535 14.251 0.0461535C14.3502 0.0461535 14.4483 0.065731 14.5394 0.103682C14.6305 0.141633 14.7127 0.196586 14.7809 0.266324Z" fill="#333333"/>
</svg>
