<svg width="149" height="50" viewBox="0 0 149 50" fill="none" xmlns="http://www.w3.org/2000/svg">
<path d="M25.2393 30.8986V16.354H28.5573L33.154 23.7133C33.3888 24.0906 33.6256 24.5014 33.8667 24.9437C34.1077 25.3859 34.3529 25.8785 34.6045 26.4172C34.8539 26.958 35.1033 27.5658 35.3507 28.2429H35.0488C35.0027 27.7021 34.9629 27.1278 34.9273 26.5157C34.8916 25.9037 34.8602 25.3189 34.835 24.7592C34.8099 24.1996 34.7952 23.7238 34.7952 23.3339V16.354H37.8408V30.8986H34.5122L30.3348 24.2226C30.0288 23.7217 29.7458 23.2354 29.4859 22.7638C29.226 22.2921 28.9535 21.7723 28.6705 21.2022C28.3875 20.6321 28.0501 19.9508 27.6602 19.1564H28.0417C28.0815 19.8586 28.1193 20.5335 28.1591 21.177C28.1989 21.8205 28.2282 22.4053 28.2513 22.9293C28.2744 23.4534 28.2848 23.881 28.2848 24.2121V30.8986H25.2393Z" fill="#002868"/>
<path d="M39.6392 30.8986L44.6068 16.354H48.5118L53.6073 30.8986H50.2976L47.9647 23.881C47.6859 22.9776 47.4009 21.9861 47.1116 20.9087C46.8224 19.8314 46.5184 18.6555 46.1998 17.3811H46.8538C46.5415 18.6639 46.2501 19.846 45.9798 20.9297C45.7094 22.0134 45.4411 22.9985 45.1749 23.8831L42.93 30.9007H39.6413L39.6392 30.8986ZM42.7434 27.5218V25.1889H50.5031V27.5218H42.7434Z" fill="#002868"/>
<path d="M53.0413 18.8252V16.3561H64.9217V18.8252H60.4802V30.9007H57.4933V18.8252H53.0413Z" fill="#002868"/>
<path d="M69.9481 16.354V30.8986H66.9717V16.354H69.9481Z" fill="#002868"/>
<path d="M78.9676 31.0935C77.6848 31.0935 76.532 30.8 75.507 30.2152C74.482 29.6304 73.6708 28.7794 73.0755 27.6664C72.4803 26.5534 72.1826 25.2099 72.1826 23.6357C72.1826 22.0616 72.4803 20.7054 73.0755 19.5903C73.6708 18.4752 74.482 17.6242 75.507 17.0373C76.532 16.4504 77.6848 16.159 78.9676 16.159C80.2504 16.159 81.4116 16.4525 82.4324 17.0373C83.4532 17.6221 84.2622 18.4731 84.8575 19.5903C85.4528 20.7075 85.7504 22.0553 85.7504 23.6357C85.7504 25.2161 85.4528 26.5534 84.8575 27.6664C84.2622 28.7794 83.4532 29.6284 82.4324 30.2152C81.4095 30.8 80.2546 31.0935 78.9676 31.0935ZM78.9676 28.4483C79.7222 28.4483 80.3803 28.2638 80.9442 27.897C81.508 27.5302 81.944 26.9852 82.2563 26.2663C82.5686 25.5473 82.7258 24.6712 82.7258 23.6357C82.7258 22.6003 82.5686 21.7052 82.2563 20.9863C81.944 20.2673 81.5059 19.7245 80.9442 19.3555C80.3803 18.9887 79.7222 18.8043 78.9676 18.8043C78.213 18.8043 77.5611 18.9887 76.9952 19.3618C76.4292 19.7328 75.9891 20.2778 75.6768 20.9968C75.3644 21.7157 75.2072 22.5961 75.2072 23.6378C75.2072 24.6795 75.3644 25.5473 75.6768 26.2642C75.9891 26.981 76.4292 27.5239 76.9952 27.8949C77.5611 28.2659 78.2193 28.4504 78.9676 28.4504V28.4483Z" fill="#002868"/>
<path d="M87.9871 30.8986V16.354H91.3051L95.9018 23.7133C96.1366 24.0906 96.3734 24.5014 96.6145 24.9437C96.8555 25.3859 97.1007 25.8785 97.3523 26.4172C97.6017 26.958 97.8511 27.5658 98.0985 28.2429H97.7966C97.7505 27.7021 97.7107 27.1278 97.6751 26.5157C97.6394 25.9037 97.608 25.3189 97.5828 24.7592C97.5577 24.1996 97.543 23.7238 97.543 23.3339V16.354H100.589V30.8986H97.26L93.0826 24.2226C92.7766 23.7217 92.4936 23.2354 92.2337 22.7638C91.9738 22.2921 91.7013 21.7723 91.4183 21.2022C91.1353 20.6321 90.7979 19.9508 90.408 19.1564H90.7895C90.8293 19.8586 90.867 20.5335 90.9069 21.177C90.9467 21.8205 90.976 22.4053 90.9991 22.9293C91.0222 23.4534 91.0326 23.881 91.0326 24.2121V30.8986H87.9871Z" fill="#002868"/>
<path d="M114.343 31.0935C113.06 31.0935 111.907 30.8 110.882 30.2152C109.857 29.6304 109.046 28.7794 108.451 27.6664C107.856 26.5534 107.558 25.2099 107.558 23.6357C107.558 22.0616 107.856 20.7054 108.451 19.5903C109.046 18.4752 109.857 17.6242 110.882 17.0373C111.907 16.4504 113.06 16.159 114.343 16.159C115.626 16.159 116.787 16.4525 117.808 17.0373C118.829 17.6221 119.638 18.4731 120.233 19.5903C120.828 20.7075 121.126 22.0553 121.126 23.6357C121.126 25.2161 120.828 26.5534 120.233 27.6664C119.638 28.7794 118.829 29.6284 117.808 30.2152C116.785 30.8 115.63 31.0935 114.343 31.0935ZM114.343 28.4483C115.098 28.4483 115.756 28.2638 116.32 27.897C116.883 27.5302 117.319 26.9852 117.632 26.2663C117.944 25.5473 118.101 24.6712 118.101 23.6357C118.101 22.6003 117.944 21.7052 117.632 20.9863C117.319 20.2673 116.881 19.7245 116.32 19.3555C115.756 18.9887 115.098 18.8043 114.343 18.8043C113.588 18.8043 112.937 18.9887 112.371 19.3618C111.805 19.7328 111.365 20.2778 111.052 20.9968C110.74 21.7157 110.583 22.5961 110.583 23.6378C110.583 24.6795 110.74 25.5473 111.052 26.2642C111.365 26.981 111.805 27.5239 112.371 27.8949C112.937 28.2659 113.595 28.4504 114.343 28.4504V28.4483Z" fill="#BF0A30"/>
<path d="M123.362 30.8986V16.354H126.68L131.277 23.7133C131.512 24.0906 131.749 24.5014 131.99 24.9437C132.231 25.3859 132.476 25.8785 132.728 26.4172C132.977 26.958 133.226 27.5658 133.474 28.2429H133.172C133.126 27.7021 133.086 27.1278 133.05 26.5157C133.015 25.9037 132.983 25.3189 132.958 24.7592C132.933 24.1996 132.918 23.7238 132.918 23.3339V16.354H135.964V30.8986H132.635L128.458 24.2226C128.152 23.7217 127.869 23.2354 127.609 22.7638C127.349 22.2921 127.077 21.7723 126.794 21.2022C126.511 20.6321 126.173 19.9508 125.783 19.1564H126.165C126.205 19.8586 126.242 20.5335 126.282 21.177C126.322 21.8205 126.351 22.4053 126.374 22.9293C126.397 23.4534 126.408 23.881 126.408 24.2121V30.8986H123.362Z" fill="#BF0A30"/>
<path d="M138.601 30.8986V16.354H148.333V18.8232H141.577V22.3362H147.823V24.7676H141.577V28.4273H148.351V30.8965H138.601V30.8986Z" fill="#BF0A30"/>
<path d="M27.758 35.4512V49.9958H25.532V35.4512H27.758ZM30.2565 49.9958H26.6639V48.0444H30.1391C31.2396 48.0444 32.1534 47.839 32.8829 47.4302C33.6123 47.0215 34.1573 46.4178 34.522 45.6192C34.8867 44.8227 35.0691 43.8501 35.0691 42.7057C35.0691 41.5612 34.8888 40.6033 34.5283 39.8152C34.1678 39.0271 33.6312 38.4297 32.9185 38.0189C32.2058 37.6081 31.3192 37.4048 30.2586 37.4048H26.5884V35.4533H30.4053C31.8369 35.4533 33.0631 35.7426 34.086 36.3211C35.1068 36.8996 35.8928 37.7317 36.4378 38.8154C36.9849 39.8991 37.2574 41.1965 37.2574 42.7057C37.2574 44.2149 36.9828 45.5228 36.4315 46.6107C35.8823 47.6985 35.0837 48.5328 34.0399 49.1196C32.9961 49.7045 31.7342 49.9979 30.2565 49.9979V49.9958Z" fill="#1C1C1C"/>
<path d="M40.2798 49.9959V35.4513H49.4354V37.365H42.5058V41.6996H48.9386V43.6029H42.5058V48.0842H49.4941V49.998H40.2798V49.9959Z" fill="#1C1C1C"/>
<path d="M52.655 49.9959V35.4513H58.0147C59.0501 35.4513 59.9053 35.6211 60.5823 35.9585C61.2594 36.2981 61.7624 36.755 62.0957 37.3293C62.4269 37.9058 62.5946 38.5514 62.5946 39.2661C62.5946 39.8719 62.4835 40.3812 62.2634 40.7941C62.0412 41.2071 61.7436 41.5403 61.3705 41.7898C60.9953 42.0413 60.5844 42.2237 60.1359 42.341V42.4878C60.6243 42.5066 61.098 42.6617 61.5612 42.951C62.0223 43.2402 62.4059 43.6469 62.7077 44.1709C63.0096 44.6949 63.1626 45.33 63.1626 46.0783C63.1626 46.8266 62.9886 47.4785 62.6407 48.0696C62.2927 48.6628 61.7582 49.1302 61.0351 49.476C60.3119 49.8219 59.3855 49.9938 58.2536 49.9938H52.6592L52.655 49.9959ZM54.881 41.7479H57.7988C58.2871 41.7479 58.7294 41.6535 59.1256 41.4649C59.5217 41.2762 59.834 41.01 60.0625 40.6642C60.291 40.3183 60.4042 39.9159 60.4042 39.4548C60.4042 38.8553 60.1967 38.3564 59.7795 37.9561C59.3624 37.5557 58.721 37.3566 57.8575 37.3566H54.881V41.7499V41.7479ZM54.881 48.0822H58.0251C59.0669 48.0822 59.8152 47.8809 60.27 47.4764C60.7249 47.0739 60.9533 46.573 60.9533 45.9735C60.9533 45.504 60.8381 45.0827 60.6075 44.7054C60.3769 44.3281 60.0499 44.0263 59.6265 43.802C59.2031 43.5777 58.7001 43.4645 58.1132 43.4645H54.8831V48.0822H54.881Z" fill="#1C1C1C"/>
<path d="M64.2397 37.365V35.4513H75.5333V37.365H71.0142V49.9959H68.7798V37.365H64.2397Z" fill="#1C1C1C"/>
<path d="M83.9912 49.9959V35.4513H89.2041C90.3234 35.4513 91.2562 35.6441 92.0066 36.0319C92.7548 36.4197 93.3145 36.9584 93.6855 37.648C94.0565 38.3376 94.241 39.1278 94.241 40.0207C94.241 40.9136 94.0544 41.7038 93.6792 42.3788C93.304 43.0516 92.7444 43.5756 91.9961 43.9445C91.2478 44.3155 90.3108 44.5021 89.1853 44.5021H85.2719V42.5989H88.9715C89.6883 42.5989 90.2647 42.4961 90.7049 42.2907C91.1451 42.0853 91.4679 41.7919 91.6754 41.4083C91.8829 41.0247 91.9877 40.5615 91.9877 40.0228C91.9877 39.4841 91.8829 39.0041 91.6754 38.6079C91.4679 38.2118 91.1409 37.9037 90.6986 37.6857C90.2563 37.4677 89.6736 37.3587 88.9505 37.3587H86.2172V50.0001H83.9912V49.9959ZM92.2602 49.9959L88.7367 43.4268H91.2059L94.788 49.9959H92.2602Z" fill="#1C1C1C"/>
<path d="M97.2654 49.9959V35.4513H106.421V37.365H99.4914V41.6996H105.924V43.6029H99.4914V48.0842H106.48V49.998H97.2654V49.9959Z" fill="#1C1C1C"/>
<path d="M109.641 49.9959V35.4513H111.867V48.0822H118.457V49.9959H109.643H109.641Z" fill="#1C1C1C"/>
<path d="M123.489 35.4513V49.9959H121.263V35.4513H123.489Z" fill="#1C1C1C"/>
<path d="M127.031 49.9959V35.4513H136.187V37.365H129.258V41.6996H135.69V43.6029H129.258V48.0842H136.246V49.998H127.031V49.9959Z" fill="#1C1C1C"/>
<path d="M139.407 49.9959V35.4513H148.455V37.365H141.633V42.0413H147.801V43.9445H141.633V49.9959H139.407Z" fill="#1C1C1C"/>
<path d="M0.00209651 13.2267C0.00209651 12.6859 0.0188654 11.6714 0.0188654 11.6714C0.0188654 11.6714 3.82112 10.2628 5.41832 9.46843C11.3607 6.50879 13.9283 3.76924 13.9933 3.72942V21.0219C13.6831 20.2296 13.4148 19.5484 13.1067 18.7666C12.8111 19.5086 12.2305 20.9674 12.2033 20.9674C12.2033 16.6475 12.2159 11.9774 12.2159 7.65953C12.1802 7.63648 6.05133 12.0005 0 13.2288L0.00209651 13.2267Z" fill="#BF0A30"/>
<path d="M18.3929 24.0026H16.4478V0.0508404H18.3929V24.0026Z" fill="#BF0A30"/>
<path d="M18.3888 49.9749H16.4248V32.5545C16.7916 32.8081 17.1102 33.0282 17.5148 33.307C17.3324 32.2988 17.1689 31.3954 17.0012 30.492C16.8608 29.7332 16.7183 28.9765 16.561 28.2219C16.5107 27.9767 16.561 27.8069 16.756 27.6455C17.2905 27.2011 17.8124 26.7379 18.3888 26.2411V49.9728V49.9749Z" fill="#BF0A30"/>
<path d="M9.7822 49.9895H7.83496V26.3313C8.47426 26.8888 9.036 27.3604 9.56631 27.8635C9.65225 27.9662 9.59985 28.1716 9.5684 28.3225C9.26238 29.8191 8.94587 31.3136 8.63356 32.8081C8.6126 32.9129 8.60422 33.0219 8.57697 33.2357C9.00666 32.9276 9.36509 32.6677 9.7822 32.3679V49.9874V49.9895Z" fill="#002868"/>
<path d="M0.00634766 16.9325V15.0964C3.41035 14.3292 6.68021 13.189 9.79706 11.4911V23.9606H7.80999V14.4948C5.27166 15.6246 2.70398 16.4106 0.00634766 16.9346V16.9325Z" fill="#002868"/>
<path d="M14.0289 49.9958H12.2033C12.1928 49.8805 12.176 49.7736 12.176 49.6688C12.1739 43.5441 12.176 37.4173 12.1655 31.2926C12.2536 30.8357 12.7692 30.6743 13.0459 30.4542C13.2073 30.5716 13.8361 30.7456 14.0289 31.2528C14.0059 37.1029 14.0289 43.5819 14.0289 49.432C14.0289 49.608 14.0289 49.7841 14.0289 49.9958Z" fill="#BF0A30"/>
<path d="M0.0565728 9.49988C0.0398043 9.42862 0.0963969 7.84399 0.0963969 7.84399C0.0963969 7.84399 6.95052 5.69134 9.68798 2.80506C10.5474 2.02323 11.2705 1.09048 12.0628 0.233186C12.1488 0.14096 12.2661 0.0172928 12.373 0.0131007C13.0438 -0.00785992 13.7145 0.00261976 14.4775 0.00261976C10.9058 5.15055 5.93184 7.98233 0.0586677 9.49988H0.0565728Z" fill="#BF0A30"/>
<path d="M17.3806 25.3105C16.6071 25.9686 15.9343 26.5534 15.2468 27.1215C15.0099 27.3185 14.9261 27.5009 15.0099 27.8237C15.2216 28.6453 15.3788 29.4816 15.5779 30.406C14.8506 29.9449 14.1694 29.5655 13.5511 29.1044C13.1444 28.8004 12.8698 28.8403 12.4842 29.1316C11.8721 29.5948 11.2056 29.9847 10.4887 30.4521C10.7109 29.5215 10.8974 28.6663 11.1259 27.8216C11.2056 27.5239 11.1553 27.3479 10.9184 27.1529C10.2225 26.5786 9.55177 25.977 8.77832 25.3063C9.72784 25.2769 10.5725 25.2308 11.4173 25.2329C11.7715 25.2329 11.9497 25.1386 12.0775 24.7907C12.3815 23.9669 12.7399 23.162 13.1067 22.2754C13.4358 23.1306 13.7649 23.9082 14.0332 24.7068C14.1631 25.0946 14.3476 25.2392 14.7647 25.2329C15.5989 25.2224 16.4352 25.279 17.3827 25.3105H17.3806Z" fill="#1C1C1C"/>
</svg>
