<svg width="107" height="40" viewBox="0 0 107 40" fill="none" xmlns="http://www.w3.org/2000/svg">
<path fill-rule="evenodd" clip-rule="evenodd" d="M5.26044 39.983C2.37568 39.9779 0.00514217 37.6124 0 34.7337V5.24931C0.00514217 2.37066 2.37568 0.00513129 5.26044 0H101.424C104.309 0.00513129 106.68 2.37066 106.685 5.24931V34.7286C106.68 37.6072 104.309 39.9728 101.424 39.9779H5.26044V39.983Z" fill="#015A75"/>
<path fill-rule="evenodd" clip-rule="evenodd" d="M5.26045 0.821014C2.8282 0.826146 0.822754 2.82222 0.822754 5.24932V34.7286C0.827896 37.1557 2.8282 39.1569 5.26045 39.1569H36.1649V0.821014H5.26045ZM78.017 27.5037L78.6752 26.5801C79.1483 27.0727 79.8065 27.3498 80.4904 27.3498C81.1589 27.3498 81.4829 27.0419 81.4829 26.7187C81.4829 26.303 80.9532 26.1799 80.3259 26.0259C79.39 25.8155 78.197 25.559 78.197 24.2608C78.197 23.3115 79.0198 22.5264 80.3619 22.5264C81.272 22.5264 82.0228 22.7983 82.5884 23.3217L81.9097 24.2095C81.452 23.8041 80.8607 23.5834 80.2487 23.5886C79.7294 23.5886 79.4363 23.8195 79.4363 24.1581C79.4363 24.5276 79.9608 24.6456 80.5727 24.7893C81.5086 25.0099 82.7119 25.2922 82.7119 26.5852C82.7119 27.6269 81.9662 28.412 80.4287 28.412C79.3334 28.4017 78.5415 28.0425 78.017 27.5037ZM72.8132 27.5037L73.4714 26.5801C73.9445 27.0727 74.6026 27.3498 75.2866 27.3498C75.955 27.3498 76.279 27.0419 76.279 26.7187C76.279 26.303 75.7494 26.1799 75.1271 26.0259C74.1913 25.8155 72.9983 25.559 72.9983 24.2608C72.9983 23.3115 73.821 22.5264 75.1631 22.5264C76.0682 22.5264 76.8241 22.7983 77.3897 23.3217L76.7161 24.2095C76.2584 23.8041 75.6671 23.5834 75.0552 23.5886C74.5358 23.5886 74.2427 23.8195 74.2427 24.1581C74.2427 24.5276 74.7672 24.6456 75.3791 24.7893C76.315 25.0099 77.5183 25.2922 77.5183 26.5852C77.5183 27.6269 76.7726 28.412 75.2351 28.412C74.1347 28.4017 73.348 28.0425 72.8132 27.5037ZM53.8643 27.5037L54.5225 26.5801C54.9955 27.0727 55.6537 27.3498 56.3377 27.3498C57.0061 27.3498 57.3301 27.0419 57.3301 26.7187C57.3301 26.303 56.8004 26.1799 56.1731 26.0259C55.2372 25.8155 54.0442 25.559 54.0442 24.2608C54.0442 23.3115 54.867 22.5264 56.2091 22.5264C57.1193 22.5264 57.87 22.7983 58.4357 23.3217L57.7569 24.2095C57.2992 23.8041 56.7079 23.5834 56.096 23.5886C55.5766 23.5886 55.2835 23.8195 55.2835 24.1581C55.2835 24.5276 55.8029 24.6456 56.4199 24.7893C57.3558 25.0099 58.5591 25.2922 58.5591 26.5852C58.5591 27.6269 57.8134 28.412 56.2759 28.412C55.1858 28.4017 54.399 28.0425 53.8643 27.5037ZM47.9096 26.0362V22.6085H49.154V25.99C49.154 26.7854 49.622 27.3293 50.4961 27.3293C51.3703 27.3293 51.8331 26.7802 51.8331 25.99V22.6085H53.0775V26.0259C53.0775 27.4422 52.2393 28.4068 50.5013 28.4068C48.7684 28.412 47.9096 27.437 47.9096 26.0362ZM65.789 28.3094L63.0688 24.5943V28.3094H61.8552V22.6085H63.0996L65.7478 26.1799V22.6085H66.9614V28.3042H65.789V28.3094ZM59.4487 28.3094V22.6085H60.6622V28.3042H59.4487V28.3094ZM68.1492 28.3094V22.6085H72.1961V23.6758H69.3679V24.8816H72.1344V25.949H69.3679V27.2369H72.191V28.3042L68.1492 28.3094ZM42.1812 28.3094V22.6085H45.1843C46.2744 22.6085 46.8298 23.3012 46.8298 24.0606C46.8298 24.779 46.3824 25.2562 45.8476 25.3691C46.4544 25.4615 46.9378 26.0516 46.9378 26.7648C46.9378 27.6166 46.367 28.3042 45.2768 28.3042L42.1812 28.3094ZM45.6985 26.6006C45.6985 26.2414 45.4414 25.9336 44.9632 25.9336H43.3999V27.2574H44.9632C45.4208 27.2574 45.6985 27.006 45.6985 26.6006ZM45.5905 24.271C45.5905 23.9272 45.3077 23.6501 44.9683 23.6501C44.9529 23.6501 44.9375 23.6501 44.922 23.6501H43.3999V24.8919H44.922C45.3334 24.8919 45.5905 24.6353 45.5905 24.2762V24.271ZM47.8222 15.6761C47.8222 13.9263 49.1489 12.7256 50.8612 12.7256C51.8588 12.7 52.7844 13.2439 53.2472 14.1213L52.2033 14.6345C51.9462 14.1367 51.432 13.8134 50.8664 13.8032C49.8328 13.8032 49.0769 14.5985 49.0769 15.6658C49.0769 16.7332 49.8277 17.5285 50.8664 17.5285C51.432 17.5234 51.9514 17.2052 52.2085 16.7024L53.2472 17.2206C52.8358 17.9287 52.1159 18.6163 50.8612 18.6163C49.154 18.6215 47.8222 17.431 47.8222 15.6761ZM53.7614 15.6761C53.7614 13.9263 55.0881 12.7256 56.8004 12.7256C57.798 12.7 58.7236 13.2439 59.1864 14.1213L58.1426 14.6345C57.8803 14.1316 57.3661 13.8134 56.8004 13.8032C55.7669 13.8032 55.011 14.5985 55.011 15.6658C55.011 16.7332 55.7617 17.5285 56.8004 17.5285C57.3661 17.5234 57.8854 17.2052 58.1426 16.7024L59.1864 17.2052C58.775 17.9134 58.0551 18.6009 56.8004 18.6009C55.0932 18.6215 53.7614 17.431 53.7614 15.6761ZM63.2024 18.524L62.0815 16.5074H61.1919V18.524H59.9783V12.8282H62.6471C63.8349 12.8282 64.5651 13.6031 64.5651 14.6652C64.5651 15.671 63.9326 16.22 63.3207 16.3586L64.6063 18.5342L63.2024 18.524ZM46.1202 18.524L45.7705 17.5593H43.3228L42.9629 18.524H41.5745L43.7856 12.8282H45.3077L47.5085 18.524H46.1202ZM89.2938 18.524V12.8282H91.5461C93.3356 12.8282 94.5748 13.9623 94.5748 15.6812C94.5748 17.4002 93.3304 18.524 91.5461 18.524H89.2938ZM84.2442 18.524V12.8282H88.2911V13.8956H85.4578V15.1014H88.2191V16.1687H85.4578V17.4567H88.2808V18.524H84.2442ZM76.7984 18.524V12.8282H78.0119V18.524H76.7984ZM70.5918 18.524V12.8282H72.844C74.6335 12.8282 75.8728 13.9623 75.8728 15.6812C75.8728 17.4002 74.6284 18.524 72.844 18.524H70.5918ZM65.5421 18.524V12.8282H69.589V13.8956H66.7557V15.1014H69.5222V16.1687H66.7557V17.4567H69.5788V18.524H65.5421ZM80.5213 18.524V13.8956H78.8501V12.8282H83.406V13.8956H81.7451V18.524H80.5213ZM93.3407 15.6812C93.3407 14.6755 92.7185 13.8956 91.5512 13.8956H90.5177V17.4567H91.5512C92.6722 17.4567 93.3304 16.6459 93.3304 15.6812H93.3407ZM74.6386 15.6812C74.6386 14.6755 74.0164 13.8956 72.8492 13.8956H71.8156V17.4567H72.8492C73.9702 17.4567 74.6284 16.6459 74.6284 15.6812H74.6386ZM44.5466 14.0392L43.657 16.492H45.4362L44.5466 14.0392ZM63.3207 14.6601C63.3207 14.1829 62.9556 13.8904 62.4671 13.8904H61.1919V15.4298H62.4671C62.9556 15.4298 63.3207 15.1425 63.3207 14.6601Z" fill="white"/>
<path fill-rule="evenodd" clip-rule="evenodd" d="M12.7837 32.9378C13.5961 33.297 13.9921 33.533 14.1463 34.5387C14.4086 36.2936 12.7888 36.9607 11.2616 36.9607H7.68262V29.3048H11.2924C12.5883 29.3048 13.771 29.8949 13.771 31.3368C13.771 32.0552 13.3956 32.5786 12.7837 32.9378ZM19.9518 32.9378C20.7643 33.297 21.1603 33.533 21.3145 34.5387C21.5768 36.2936 19.957 36.9607 18.4298 36.9607H14.8508V29.3048H18.4606C19.7564 29.3048 20.9391 29.8949 20.9391 31.3368C20.9391 32.0552 20.5638 32.5786 19.9518 32.9378ZM28.4827 34.5439C28.3284 33.5381 27.9274 33.3021 27.12 32.9429C27.732 32.5837 28.1125 32.0603 28.1125 31.3368C28.1125 29.8949 26.9298 29.3048 25.6339 29.3048H22.0241V36.9658H25.6031C27.1252 36.9658 28.7501 36.2988 28.4827 34.5439ZM29.4803 35.1288V35.1134C29.4803 34.1436 30.2773 33.3483 31.2492 33.3483C32.2211 33.3483 33.0181 34.1436 33.0181 35.1083V35.1237C33.0181 36.0935 32.2211 36.8889 31.2492 36.8889C30.2825 36.894 29.4854 36.0986 29.4803 35.1288ZM32.8587 35.1237V35.1083C32.8536 34.2309 32.1285 33.5073 31.2492 33.5073C30.3647 33.5073 29.6397 34.2309 29.6397 35.1134V35.1288C29.6448 36.0063 30.3699 36.7298 31.2492 36.7298C32.1337 36.7298 32.8587 36.0063 32.8587 35.1237ZM30.555 34.1642H31.3675C31.5629 34.1539 31.7583 34.2257 31.9074 34.354C32.0051 34.4464 32.0565 34.5747 32.0565 34.7029V34.7132C32.0565 35.0057 31.8611 35.1801 31.5886 35.2469L32.1491 35.9755H31.8148L31.2903 35.293H30.8275V35.9755H30.5601L30.555 34.1642ZM11.4107 35.5137H9.31269V33.769H11.4107C12.9482 33.769 12.8556 35.5137 11.4107 35.5137ZM18.5789 35.5137H16.486V33.769H18.5789C20.1164 33.769 20.0238 35.5137 18.5789 35.5137ZM23.6542 33.769V35.5137H25.7471C27.192 35.5137 27.2846 33.769 25.7471 33.769H23.6542ZM31.3418 35.0519C31.5937 35.0519 31.7737 34.9338 31.7737 34.7286V34.7183C31.7737 34.5285 31.6194 34.4053 31.3572 34.4053H30.8224V35.0519H31.3418ZM9.31269 30.7672H11.1947C12.3671 30.7672 12.4083 32.399 11.2667 32.399H9.31269V30.7672ZM23.6594 30.7672H25.526C26.6984 30.7672 26.7395 32.399 25.5979 32.399H23.6491L23.6594 30.7672ZM16.4912 30.7672H18.3681C19.5405 30.7672 19.5816 32.399 18.44 32.399H16.486L16.4912 30.7672ZM11.1484 25.8771H14.64L15.2622 27.9912H20.97L21.5922 25.8771H25.0837L24.6261 24.3223H11.6061L11.1484 25.8771ZM15.3753 13.3516L13.6835 15.6812C12.8351 16.846 13.0973 18.9139 14.2543 19.7452L17.391 22.003C17.931 22.393 17.9721 22.7778 17.715 23.1832L18.1727 23.5218L19.7616 21.3257C20.7437 19.9659 20.6563 18.1237 19.2011 17.0616L16.0335 14.7576C15.6581 14.4805 15.617 14.0957 15.8227 13.6698L15.3753 13.3516ZM18.0904 3.06851L15.4576 6.7066C14.2235 8.41019 14.6708 11.3196 16.3575 12.5614L20.6872 15.7325C21.5665 16.374 21.6796 18.016 21.042 18.8524L21.4071 19.1295L24.3947 14.9372C25.7368 13.054 25.6597 10.2677 23.5514 8.74372L18.9183 5.38273C18.2704 4.91578 17.9464 4.1153 18.4863 3.35073L18.0904 3.06851Z" fill="#015A75"/>
</svg>
