<svg width="82" height="39" viewBox="0 0 82 39" fill="none" xmlns="http://www.w3.org/2000/svg">
<path d="M21.3887 7.20001H29.6887V8.80001H26.4964V17.44H24.581V8.80001H21.3887V7.20001ZM29.2098 9.92001H30.806V11.36C30.806 11.2 30.9656 11.04 31.1252 10.72C31.2848 10.4 31.4444 10.4 31.6041 10.24C31.7637 10.08 32.0829 9.92001 32.2425 9.92001C32.4021 9.76001 32.7214 9.76001 33.0406 9.76001C33.2002 9.76001 33.3598 9.76001 33.3598 9.76001H33.5194V11.36C33.3598 11.36 33.3598 11.36 33.2002 11.36C33.0406 11.36 33.0406 11.36 32.881 11.36C32.5618 11.36 32.4021 11.36 32.0829 11.52C31.7637 11.68 31.6041 11.84 31.4444 12C31.2848 12.16 31.1252 12.48 30.9656 12.8C30.806 13.12 30.806 13.44 30.806 13.92V17.44H29.2098V9.92001ZM41.0214 17.44H39.4252V16.48C39.2656 16.8 38.9464 17.12 38.4675 17.44C38.1483 17.6 37.6694 17.76 37.1906 17.76C36.2329 17.76 35.5944 17.6 35.1156 16.96C34.6367 16.32 34.4771 15.68 34.4771 14.72V10.08H36.0733V14.56C36.0733 15.2 36.2329 15.68 36.3925 16C36.7117 16.32 37.031 16.48 37.5098 16.48C37.8291 16.48 38.1483 16.48 38.3079 16.32C38.4675 16.16 38.7867 16 38.7867 15.84C38.9464 15.68 39.106 15.52 39.106 15.2C39.106 14.88 39.2656 14.72 39.2656 14.4V10.08H40.8617V17.44H41.0214ZM43.7348 15.04C43.7348 15.52 43.8944 15.84 44.2137 16C44.5329 16.16 44.8521 16.32 45.331 16.32C45.4906 16.32 45.6502 16.32 45.8098 16.32C45.9694 16.32 46.1291 16.32 46.2887 16.16C46.4483 16.16 46.6079 16 46.7675 15.84C46.9271 15.68 46.9271 15.52 46.9271 15.36C46.9271 15.2 46.7675 15.04 46.7675 14.88C46.6079 14.72 46.4483 14.72 46.2887 14.56C46.1291 14.56 45.8098 14.4 45.4906 14.4C45.1714 14.4 44.8521 14.24 44.6925 14.24C44.3733 14.24 44.0541 14.08 43.8944 13.92C43.7348 13.76 43.4156 13.76 43.0964 13.6C42.9367 13.44 42.6175 13.28 42.6175 12.96C42.4579 12.64 42.4579 12.32 42.4579 12C42.4579 11.52 42.6175 11.2 42.7771 11.04C42.9368 10.88 43.256 10.56 43.5752 10.4C43.8944 10.24 44.2137 10.08 44.5329 10.08C44.8521 10.08 45.331 9.92001 45.6502 9.92001C45.9694 9.92001 46.4483 9.92001 46.7675 10.08C47.0868 10.08 47.406 10.24 47.7252 10.4C48.0444 10.56 48.2041 10.88 48.3637 11.04C48.5233 11.36 48.6829 11.68 48.6829 12.16H46.9271C46.9271 11.84 46.6079 11.52 46.4483 11.36C45.9694 11.2 45.6502 11.04 45.331 11.04C45.1714 11.04 45.0117 11.04 44.8521 11.04C44.6925 11.04 44.5329 11.04 44.3733 11.2C44.2137 11.2 44.0541 11.36 44.0541 11.36C43.8944 11.52 43.8944 11.52 43.8944 11.68C43.8944 11.84 43.8944 12 44.0541 12.16C44.2137 12.32 44.3733 12.32 44.5329 12.48C44.6925 12.48 45.0117 12.64 45.331 12.64C45.6502 12.64 45.9694 12.8 46.2887 12.8C46.6079 12.8 46.9271 12.96 47.0867 13.12C47.406 13.28 47.5656 13.28 47.8848 13.44C48.2041 13.6 48.3637 13.76 48.3637 14.08C48.5233 14.4 48.5233 14.56 48.5233 15.04C48.5233 15.52 48.3637 15.84 48.2041 16.16C48.0444 16.48 47.7252 16.64 47.406 16.96C47.2464 17.28 46.9271 17.44 46.6079 17.44C46.2887 17.44 45.8098 17.6 45.4906 17.6C45.0117 17.6 44.5329 17.6 44.2137 17.44C43.8944 17.28 43.4156 17.12 43.256 16.96C42.9368 16.8 42.7771 16.48 42.6175 16.16C42.2983 15.84 42.1387 15.52 42.1387 15.04H43.7348ZM49.1618 9.92001H50.4387V7.84001H52.0348V10.08H53.4714V11.36H52.0348V15.36C52.0348 15.52 52.0348 15.68 52.0348 15.84C52.0348 16 52.0348 16 52.1944 16.16C52.3541 16.32 52.3541 16.32 52.3541 16.32C52.5137 16.32 52.6733 16.32 52.8329 16.32C52.9925 16.32 52.9925 16.32 53.1521 16.32C53.3118 16.32 53.3117 16.32 53.4714 16.32V17.44C53.3117 17.44 53.1521 17.44 52.9925 17.44C52.8329 17.44 52.6733 17.44 52.5137 17.44C52.0348 17.44 51.7156 17.44 51.556 17.28C51.2368 17.28 51.0771 17.12 50.9175 16.96C50.7579 16.8 50.5983 16.64 50.5983 16.32C50.5983 16.16 50.4387 15.84 50.4387 15.52V11.2H49.1618V9.92001ZM54.5887 9.92001H56.1848V11.04C56.3444 10.56 56.6637 10.24 57.1425 10.08C57.6214 9.92001 57.9406 9.76001 58.4194 9.76001C59.0579 9.76001 59.5368 9.92001 60.0156 10.08C60.4944 10.24 60.8137 10.56 61.1329 10.88C61.4521 11.2 61.6117 11.68 61.7714 12.16C61.931 12.64 61.931 13.12 61.931 13.76C61.931 14.24 61.931 14.72 61.7714 15.2C61.6117 15.68 61.4521 16 61.1329 16.48C60.8137 16.8 60.4944 17.12 60.1752 17.28C59.6964 17.44 59.3771 17.6 58.7387 17.6C58.5791 17.6 58.2598 17.6 58.1002 17.6C57.9406 17.6 57.6214 17.44 57.4617 17.44C57.3021 17.28 56.9829 17.28 56.8233 17.12C56.6637 16.96 56.5041 16.8 56.3444 16.64V20.32H54.7483V9.92001H54.5887ZM60.3348 13.76C60.3348 13.44 60.3348 13.12 60.1752 12.8C60.0156 12.48 60.0156 12.16 59.856 12C59.6964 11.84 59.5368 11.52 59.2175 11.36C58.8983 11.2 58.7387 11.2 58.2598 11.2C57.6214 11.2 56.9829 11.36 56.6637 11.84C56.3444 12.32 56.1848 12.96 56.1848 13.76C56.1848 14.08 56.1848 14.56 56.3444 14.72C56.5041 15.04 56.5041 15.36 56.8233 15.52C56.9829 15.68 57.1425 16 57.4617 16C57.781 16.16 57.9406 16.16 58.2598 16.16C58.5791 16.16 58.8983 16.16 59.2175 16C59.5368 15.84 59.6964 15.68 59.856 15.36C60.0156 15.04 60.1752 14.88 60.1752 14.56C60.1752 14.4 60.3348 14.08 60.3348 13.76ZM63.2079 7.20001H64.8041V8.80001H63.2079V7.20001ZM63.2079 9.92001H64.8041V17.44H63.2079V9.92001ZM66.2406 7.20001H67.8367V17.44H66.2406V7.20001ZM72.7848 17.6C72.1464 17.6 71.6675 17.44 71.1887 17.28C70.7098 17.12 70.3906 16.8 70.0714 16.48C69.7521 16.16 69.4329 15.68 69.2733 15.2C69.1137 14.72 68.9541 14.24 68.9541 13.6C68.9541 12.96 69.1137 12.48 69.2733 12C69.4329 11.52 69.7521 11.04 70.0714 10.72C70.3906 10.4 70.7098 10.08 71.1887 9.92001C71.6675 9.76001 72.1464 9.60001 72.7848 9.60001C73.4233 9.60001 73.9021 9.76001 74.381 9.92001C74.8598 10.08 75.1791 10.4 75.4983 10.72C75.8175 11.04 76.1368 11.52 76.2964 12C76.456 12.48 76.6156 12.96 76.6156 13.6C76.6156 14.24 76.456 14.72 76.2964 15.2C76.1368 15.68 75.8175 16.16 75.4983 16.48C75.1791 16.8 74.8598 17.12 74.381 17.28C73.9021 17.44 73.4233 17.6 72.7848 17.6ZM72.7848 16.32C73.1041 16.32 73.4233 16.32 73.7425 16.16C74.0617 16 74.2214 15.84 74.381 15.52C74.5406 15.2 74.7002 15.04 74.7002 14.72C74.7002 14.4 74.8598 14.08 74.8598 13.76C74.8598 13.44 74.8598 13.12 74.7002 12.8C74.7002 12.48 74.5406 12.16 74.381 12C74.2214 11.84 74.0617 11.52 73.7425 11.36C73.4233 11.2 73.1041 11.2 72.7848 11.2C72.4656 11.2 72.1464 11.2 71.8271 11.36C71.5079 11.52 71.3483 11.68 71.1887 12C71.0291 12.32 70.8694 12.48 70.8694 12.8C70.8694 13.12 70.7098 13.44 70.7098 13.76C70.7098 14.08 70.7098 14.4 70.8694 14.72C70.8694 15.04 71.0291 15.36 71.1887 15.52C71.3483 15.84 71.5079 16 71.8271 16.16C72.1464 16.16 72.4656 16.32 72.7848 16.32ZM77.0944 9.92001H78.3714V7.84001H79.9675V10.08H81.4041V11.36H79.9675V15.36C79.9675 15.52 79.9675 15.68 79.9675 15.84C79.9675 16 79.9675 16 80.1271 16.16C80.2867 16.32 80.2868 16.32 80.2868 16.32C80.4464 16.32 80.606 16.32 80.7656 16.32C80.9252 16.32 80.9252 16.32 81.0848 16.32C81.2444 16.32 81.2444 16.32 81.4041 16.32V17.44C81.2444 17.44 81.0848 17.44 80.9252 17.44C80.7656 17.44 80.606 17.44 80.4464 17.44C79.9675 17.44 79.6483 17.44 79.4887 17.28C79.1694 17.28 79.0098 17.12 78.8502 16.96C78.6906 16.8 78.531 16.64 78.531 16.32C78.531 16.16 78.3714 15.84 78.3714 15.52V11.2H77.0944V9.92001Z" fill="#191919"/>
<path d="M19.4731 7.2H11.9712L9.73654 0L7.34231 7.2H0L5.90577 11.52L3.67115 18.72L9.73654 14.24L15.6423 18.72L13.4077 11.52L19.4731 7.2Z" fill="#00B67A"/>
<path d="M13.8863 13.12L13.4075 11.52L9.73633 14.24L13.8863 13.12Z" fill="#005128"/>
<path d="M15.3231 23.2H0V38.56H15.3231V23.2Z" fill="#00B67A"/>
<path d="M31.7635 23.2H16.4404V38.56H31.7635V23.2Z" fill="#00B67A"/>
<path d="M48.3636 23.2H33.0405V38.56H48.3636V23.2Z" fill="#00B67A"/>
<path d="M64.804 23.2H49.481V38.56H64.804V23.2Z" fill="#00B67A"/>
<path d="M81.4036 23.2H66.0806V38.56H81.4036V23.2Z" fill="#DCDCE6"/>
<path d="M66.0806 23.2H73.7421V38.4H66.0806V23.2Z" fill="#00B67A"/>
<path d="M7.50168 33.44L9.89591 32.8L10.8536 35.84L7.50168 33.44ZM12.9286 29.6H8.77861L7.50168 25.76L6.22476 29.6H2.23438L5.5863 32L4.30938 35.84L7.6613 33.44L9.7363 32L12.9286 29.6Z" fill="white"/>
<path d="M24.1022 33.44L26.4964 32.8L27.4541 35.84L24.1022 33.44ZM29.3695 29.6H25.2195L23.9425 25.76L22.6656 29.6H18.5156L21.8675 32L20.5906 35.84L23.9425 33.44L26.0175 32L29.3695 29.6Z" fill="white"/>
<path d="M40.7018 33.44L43.096 32.8L44.0537 35.84L40.7018 33.44ZM45.9691 29.6H41.8191L40.5422 25.76L39.2652 29.6H35.1152L38.4672 32L37.3498 35.84L40.7018 33.44L42.7768 32L45.9691 29.6Z" fill="white"/>
<path d="M57.1423 33.44L59.5365 32.8L60.4942 35.84L57.1423 33.44ZM62.5692 29.6H58.4192L57.1423 25.76L55.8653 29.6H51.7153L55.0673 32L53.7903 35.84L57.1423 33.44L59.2173 32L62.5692 29.6Z" fill="white"/>
<path d="M73.7423 33.44L76.1366 32.8L77.0943 35.84L73.7423 33.44ZM79.0097 29.6H74.8597L73.5827 25.76L72.4654 29.6H68.3154L71.6674 32L70.3904 35.84L73.7423 33.44L75.8173 32L79.0097 29.6Z" fill="white"/>
</svg>
