<svg width="16" height="16" viewBox="0 0 16 16" fill="none" xmlns="http://www.w3.org/2000/svg">
<g clip-path="url(#clip0_168_613)">
<path d="M13 0H3C1.343 0 0 1.344 0 3V13C0 13.7956 0.316071 14.5587 0.87868 15.1213C1.44129 15.6839 2.20435 16 3 16H13C13.7956 16 14.5587 15.6839 15.1213 15.1213C15.6839 14.5587 16 13.7956 16 13V3C16 1.344 14.657 0 13 0ZM14.5 13C14.5 13.553 13.553 14.5 13 14.5H3C2.73478 14.5 2.18754 14.1875 2 14C1.81246 13.8125 1.5 13.2652 1.5 13V3C1.5 2.448 2.448 1.5 3 1.5H13C13.2652 1.5 13.8125 1.81246 14 2C14.1875 2.18754 14.5 2.73478 14.5 3V13ZM10.459 5.17L6.924 9L5.509 7.291C5.119 6.9 4.72066 6.9 4.32966 7.291C3.93866 7.682 4.109 8.11 4.5 8.5L6.217 10.46C6.30979 10.5529 6.41999 10.6266 6.54131 10.6769C6.66262 10.7273 6.79267 10.7532 6.924 10.7532C7.05533 10.7532 7.18538 10.7273 7.30669 10.6769C7.42801 10.6266 7.53821 10.5529 7.631 10.46L11.5 6.5C11.891 6.109 12.1456 5.561 11.7546 5.17C11.3636 4.779 10.85 4.779 10.459 5.17Z" fill="#333333"/>
<path fill-rule="evenodd" clip-rule="evenodd" d="M14.5 13C14.5 13.553 13.553 14.5 13 14.5H3C2.73478 14.5 2.18754 14.1875 2 14C1.81246 13.8125 1.5 13.2652 1.5 13V3C1.5 2.448 2.448 1.5 3 1.5H13C13.2652 1.5 13.8125 1.81246 14 2C14.1875 2.18754 14.5 2.73478 14.5 3V13ZM6.924 9L10.459 5.17C10.85 4.779 11.3636 4.779 11.7546 5.17C12.1456 5.561 11.891 6.109 11.5 6.5L7.631 10.46C7.53821 10.5529 7.42801 10.6266 7.30669 10.6769C7.18538 10.7273 7.05533 10.7532 6.924 10.7532C6.79267 10.7532 6.66262 10.7273 6.54131 10.6769C6.41999 10.6266 6.30979 10.5529 6.217 10.46L4.5 8.5C4.109 8.11 3.93866 7.682 4.32966 7.291C4.72066 6.9 5.119 6.9 5.509 7.291L6.924 9Z" fill="white"/>
</g>
<defs>
<clipPath id="clip0_168_613">
<rect width="16" height="16" fill="white"/>
</clipPath>
</defs>
</svg>
